<?xml version="1.0" standalone="no"?><!DOCTYPE svg PUBLIC "-//W3C//DTD SVG 1.1//EN" "http://www.w3.org/Graphics/SVG/1.1/DTD/svg11.dtd"><svg t="1526965121840" class="icon" style="" viewBox="0 0 1024 1024" version="1.1" xmlns="http://www.w3.org/2000/svg" p-id="9608" xmlns:xlink="http://www.w3.org/1999/xlink" width="32" height="32"><defs><style type="text/css"></style></defs><path d="M512 304c-114.4 0-208 93.6-208 208s93.6 208 208 208 208-93.6 208-208S626.4 304 512 304zM512 96C283.202 96 96 283.202 96 512s187.202 416 416 416 416-187.202 416-416S740.798 96 512 96zM512 844.8c-183.036 0-332.8-149.766-332.8-332.8S328.964 179.2 512 179.2 844.8 328.964 844.8 512 695.036 844.8 512 844.8z" p-id="9609" fill="#13227a"></path></svg>