<?xml version="1.0" standalone="no"?><!DOCTYPE svg PUBLIC "-//W3C//DTD SVG 1.1//EN" "http://www.w3.org/Graphics/SVG/1.1/DTD/svg11.dtd"><svg t="1526977487134" class="icon" style="" viewBox="0 0 1024 1024" version="1.1" xmlns="http://www.w3.org/2000/svg" p-id="8871" xmlns:xlink="http://www.w3.org/1999/xlink" width="32" height="32"><defs><style type="text/css"></style></defs><path d="M704 320c105.868 0 192 86.13 192 192s-86.132 192-192 192L320 704c-105.87 0-192-86.13-192-192s86.13-192 192-192L704 320M704 256 320 256c-141.384 0-256 114.616-256 256s114.616 256 256 256l384 0c141.384 0 256-114.616 256-256S845.384 256 704 256L704 256z" p-id="8872" fill="#13227a"></path><path d="M320 416c52.934 0 96 43.066 96 96 0 52.934-43.066 96-96 96s-96-43.066-96-96C224 459.066 267.066 416 320 416M320 352c-88.366 0-160 71.634-160 160s71.634 160 160 160 160-71.634 160-160S408.366 352 320 352L320 352z" p-id="8873" fill="#13227a"></path></svg>