<?xml version="1.0" standalone="no"?><!DOCTYPE svg PUBLIC "-//W3C//DTD SVG 1.1//EN" "http://www.w3.org/Graphics/SVG/1.1/DTD/svg11.dtd"><svg t="1526977451937" class="icon" style="" viewBox="0 0 1024 1024" version="1.1" xmlns="http://www.w3.org/2000/svg" p-id="8597" xmlns:xlink="http://www.w3.org/1999/xlink" width="32" height="32"><defs><style type="text/css"></style></defs><path d="M704 416c-52.934 0-96 43.066-96 96 0 52.934 43.066 96 96 96s96-43.066 96-96C800 459.066 756.934 416 704 416z" p-id="8598" fill="#13227a"></path><path d="M704 256 320 256c-141.384 0-256 114.616-256 256s114.616 256 256 256l384 0c141.384 0 256-114.616 256-256S845.384 256 704 256zM704 672c-88.366 0-160-71.634-160-160s71.634-160 160-160 160 71.634 160 160S792.366 672 704 672z" p-id="8599" fill="#13227a"></path></svg>