<?xml version="1.0" standalone="no"?><!DOCTYPE svg PUBLIC "-//W3C//DTD SVG 1.1//EN" "http://www.w3.org/Graphics/SVG/1.1/DTD/svg11.dtd"><svg t="1526901317482" class="icon" style="" viewBox="0 0 1024 1024" version="1.1" xmlns="http://www.w3.org/2000/svg" p-id="1855" xmlns:xlink="http://www.w3.org/1999/xlink" width="32" height="32"><defs><style type="text/css"></style></defs><path d="M816 816m-32 0a32 32 0 1 0 64 0 32 32 0 1 0-64 0Z" p-id="1856" fill="#515151"></path><path d="M512 968a456 456 0 1 1 395.76-229.36 32 32 0 0 1-55.52-32 392 392 0 1 0-145.44 145.44 32 32 0 0 1 32 55.52A456 456 0 0 1 512 968z" p-id="1857" fill="#515151"></path><path d="M632.48 782.64a48.8 48.8 0 0 1-28.8-9.44L452.08 662.96H343.52a49.04 49.04 0 0 1-48.96-48.96v-204a49.04 49.04 0 0 1 49.04-48.96h108.48l151.6-110.24a48.96 48.96 0 0 1 77.84 40V733.6a49.12 49.12 0 0 1-49.04 49.04z m8.88-61.2zM358.56 598.96h98.4a48.72 48.72 0 0 1 28.8 9.04l131.68 96V320L485.76 416a48.8 48.8 0 0 1-28.8 9.36h-98.4v173.6z m98.48 64z" p-id="1858" fill="#515151"></path></svg>