<?xml version="1.0" standalone="no"?><!DOCTYPE svg PUBLIC "-//W3C//DTD SVG 1.1//EN" "http://www.w3.org/Graphics/SVG/1.1/DTD/svg11.dtd"><svg t="1526895243567" class="icon" style="" viewBox="0 0 1024 1024" version="1.1" xmlns="http://www.w3.org/2000/svg" p-id="15094" xmlns:xlink="http://www.w3.org/1999/xlink" width="32" height="32"><defs><style type="text/css"></style></defs><path d="M245.140992 943.433728q-10.856448 10.856448-18.284544 7.428096t-7.428096-18.284544l0-841.089024q0-14.856192 7.428096-18.284544t18.284544 7.428096l405.68832 405.68832q4.571136 4.571136 7.428096 10.856448l0-387.403776q0-14.856192 10.856448-25.71264t25.71264-10.856448l73.138176 0q14.856192 0 25.71264 10.856448t10.856448 25.71264l0 804.519936q0 14.856192-10.856448 25.71264t-25.71264 10.856448l-73.138176 0q-14.856192 0-25.71264-10.856448t-10.856448-25.71264l0-387.403776q-2.85696 5.71392-7.428096 10.856448z" p-id="15095" fill="#515151"></path></svg>