<?xml version="1.0" standalone="no"?><!DOCTYPE svg PUBLIC "-//W3C//DTD SVG 1.1//EN" "http://www.w3.org/Graphics/SVG/1.1/DTD/svg11.dtd"><svg t="1526976031243" class="icon" style="" viewBox="0 0 1024 1024" version="1.1" xmlns="http://www.w3.org/2000/svg" p-id="8597" xmlns:xlink="http://www.w3.org/1999/xlink" width="48" height="48"><defs><style type="text/css"></style></defs><path d="M832 639.8 832 156l-448 69.2 0 474.4c-18 0-41.8 0.8-87 2.6-85.2 3.2-105 43.6-105 82.6 0 49.8 27 87 125.2 82.8 105.6-4.6 100.6-98 100.6-165L417.8 379.6l382-64 0 321.2c-18 0-39.8 0.8-85.2 2.6-85.2 3.2-105 43.6-105 82.6 0 49.8 26 87 124.4 82.8C840 800.2 832 706.8 832 639.8z" p-id="8598" fill="#ffffff"></path></svg>