<?xml version="1.0" standalone="no"?><!DOCTYPE svg PUBLIC "-//W3C//DTD SVG 1.1//EN" "http://www.w3.org/Graphics/SVG/1.1/DTD/svg11.dtd"><svg t="1526921467597" class="icon" style="" viewBox="0 0 1024 1024" version="1.1" xmlns="http://www.w3.org/2000/svg" p-id="1530" xmlns:xlink="http://www.w3.org/1999/xlink" width="32" height="32"><defs><style type="text/css"></style></defs><path d="M512 0C229.216 0 0 229.216 0 512c0 282.768 229.216 512 512 512 282.752 0 512-229.232 512-512C1024 229.216 794.752 0 512 0zM512 992C246.896 992 32 777.088 32 512 32 246.896 246.896 32 512 32c265.056 0 480 214.896 480 480C992 777.088 777.056 992 512 992z" p-id="1531" fill="#13227a"></path><path d="M432 282.336l160 0c8.848 0 16-7.168 16-16s-7.152-16-16-16L432 250.336c-8.832 0-16 7.168-16 16S423.168 282.336 432 282.336z" p-id="1532" fill="#13227a"></path><path d="M742 326.336l-460 0c-8.832 0-16 7.168-16 16s7.168 16 16 16l460 0c8.848 0 16-7.168 16-16S750.848 326.336 742 326.336z" p-id="1533" fill="#13227a"></path><path d="M448 691.008l0-256c0-8.832-7.168-16-16-16s-16 7.168-16 16l0 256c0 8.848 7.168 16 16 16S448 699.84 448 691.008z" p-id="1534" fill="#13227a"></path><path d="M608 691.008l0-256c0-8.832-7.152-16-16-16s-16 7.168-16 16l0 256c0 8.848 7.152 16 16 16S608 699.84 608 691.008z" p-id="1535" fill="#13227a"></path><path d="M704 392.336c-8.848 0-16 7.152-16 16l0 333.328L336 741.664 336 408.336c0-8.848-7.168-16-16-16s-16 7.152-16 16l0 349.328c0 8.848 7.168 16 16 16l384 0c8.848 0 16-7.152 16-16L720 408.336C720 399.488 712.848 392.336 704 392.336z" p-id="1536" fill="#13227a"></path></svg>